<?xml version="1.0" encoding="utf-8" standalone="no"?>
<!DOCTYPE svg PUBLIC "-//W3C//DTD SVG 1.1//EN"
  "http://www.w3.org/Graphics/SVG/1.1/DTD/svg11.dtd">
<!-- Created with matplotlib (https://matplotlib.org/) -->
<svg height="351.99625pt" version="1.1" viewBox="0 0 352.548125 351.99625" width="352.548125pt" xmlns="http://www.w3.org/2000/svg" xmlns:xlink="http://www.w3.org/1999/xlink">
 <defs>
  <style type="text/css">
*{stroke-linecap:butt;stroke-linejoin:round;}
  </style>
 </defs>
 <g id="figure_1">
  <g id="patch_1">
   <path d="M -0 351.99625 
L 352.548125 351.99625 
L 352.548125 0 
L -0 0 
z
" style="fill:#ffffff;"/>
  </g>
  <g id="axes_1">
   <g id="patch_2">
    <path d="M 44.059375 314.44 
L 345.348125 314.44 
L 345.348125 7.2 
L 44.059375 7.2 
z
" style="fill:#ffffff;"/>
   </g>
   <g id="matplotlib.axis_1">
    <g id="xtick_1">
     <g id="line2d_1">
      <defs>
       <path d="M 0 0 
L 0 3.5 
" id="m212aaa7027" style="stroke:#000000;stroke-width:0.8;"/>
      </defs>
      <g>
       <use style="stroke:#000000;stroke-width:0.8;" x="94.274167" xlink:href="#m212aaa7027" y="314.44"/>
      </g>
     </g>
     <g id="text_1">
      <!-- setosa -->
      <defs>
       <path d="M 44.28125 53.078125 
L 44.28125 44.578125 
Q 40.484375 46.53125 36.375 47.5 
Q 32.28125 48.484375 27.875 48.484375 
Q 21.1875 48.484375 17.84375 46.4375 
Q 14.5 44.390625 14.5 40.28125 
Q 14.5 37.15625 16.890625 35.375 
Q 19.28125 33.59375 26.515625 31.984375 
L 29.59375 31.296875 
Q 39.15625 29.25 43.1875 25.515625 
Q 47.21875 21.78125 47.21875 15.09375 
Q 47.21875 7.46875 41.1875 3.015625 
Q 35.15625 -1.421875 24.609375 -1.421875 
Q 20.21875 -1.421875 15.453125 -0.5625 
Q 10.6875 0.296875 5.421875 2 
L 5.421875 11.28125 
Q 10.40625 8.6875 15.234375 7.390625 
Q 20.0625 6.109375 24.8125 6.109375 
Q 31.15625 6.109375 34.5625 8.28125 
Q 37.984375 10.453125 37.984375 14.40625 
Q 37.984375 18.0625 35.515625 20.015625 
Q 33.0625 21.96875 24.703125 23.78125 
L 21.578125 24.515625 
Q 13.234375 26.265625 9.515625 29.90625 
Q 5.8125 33.546875 5.8125 39.890625 
Q 5.8125 47.609375 11.28125 51.796875 
Q 16.75 56 26.8125 56 
Q 31.78125 56 36.171875 55.265625 
Q 40.578125 54.546875 44.28125 53.078125 
z
" id="DejaVuSans-115"/>
       <path d="M 56.203125 29.59375 
L 56.203125 25.203125 
L 14.890625 25.203125 
Q 15.484375 15.921875 20.484375 11.0625 
Q 25.484375 6.203125 34.421875 6.203125 
Q 39.59375 6.203125 44.453125 7.46875 
Q 49.3125 8.734375 54.109375 11.28125 
L 54.109375 2.78125 
Q 49.265625 0.734375 44.1875 -0.34375 
Q 39.109375 -1.421875 33.890625 -1.421875 
Q 20.796875 -1.421875 13.15625 6.1875 
Q 5.515625 13.8125 5.515625 26.8125 
Q 5.515625 40.234375 12.765625 48.109375 
Q 20.015625 56 32.328125 56 
Q 43.359375 56 49.78125 48.890625 
Q 56.203125 41.796875 56.203125 29.59375 
z
M 47.21875 32.234375 
Q 47.125 39.59375 43.09375 43.984375 
Q 39.0625 48.390625 32.421875 48.390625 
Q 24.90625 48.390625 20.390625 44.140625 
Q 15.875 39.890625 15.1875 32.171875 
z
" id="DejaVuSans-101"/>
       <path d="M 18.3125 70.21875 
L 18.3125 54.6875 
L 36.8125 54.6875 
L 36.8125 47.703125 
L 18.3125 47.703125 
L 18.3125 18.015625 
Q 18.3125 11.328125 20.140625 9.421875 
Q 21.96875 7.515625 27.59375 7.515625 
L 36.8125 7.515625 
L 36.8125 0 
L 27.59375 0 
Q 17.1875 0 13.234375 3.875 
Q 9.28125 7.765625 9.28125 18.015625 
L 9.28125 47.703125 
L 2.6875 47.703125 
L 2.6875 54.6875 
L 9.28125 54.6875 
L 9.28125 70.21875 
z
" id="DejaVuSans-116"/>
       <path d="M 30.609375 48.390625 
Q 23.390625 48.390625 19.1875 42.75 
Q 14.984375 37.109375 14.984375 27.296875 
Q 14.984375 17.484375 19.15625 11.84375 
Q 23.34375 6.203125 30.609375 6.203125 
Q 37.796875 6.203125 41.984375 11.859375 
Q 46.1875 17.53125 46.1875 27.296875 
Q 46.1875 37.015625 41.984375 42.703125 
Q 37.796875 48.390625 30.609375 48.390625 
z
M 30.609375 56 
Q 42.328125 56 49.015625 48.375 
Q 55.71875 40.765625 55.71875 27.296875 
Q 55.71875 13.875 49.015625 6.21875 
Q 42.328125 -1.421875 30.609375 -1.421875 
Q 18.84375 -1.421875 12.171875 6.21875 
Q 5.515625 13.875 5.515625 27.296875 
Q 5.515625 40.765625 12.171875 48.375 
Q 18.84375 56 30.609375 56 
z
" id="DejaVuSans-111"/>
       <path d="M 34.28125 27.484375 
Q 23.390625 27.484375 19.1875 25 
Q 14.984375 22.515625 14.984375 16.5 
Q 14.984375 11.71875 18.140625 8.90625 
Q 21.296875 6.109375 26.703125 6.109375 
Q 34.1875 6.109375 38.703125 11.40625 
Q 43.21875 16.703125 43.21875 25.484375 
L 43.21875 27.484375 
z
M 52.203125 31.203125 
L 52.203125 0 
L 43.21875 0 
L 43.21875 8.296875 
Q 40.140625 3.328125 35.546875 0.953125 
Q 30.953125 -1.421875 24.3125 -1.421875 
Q 15.921875 -1.421875 10.953125 3.296875 
Q 6 8.015625 6 15.921875 
Q 6 25.140625 12.171875 29.828125 
Q 18.359375 34.515625 30.609375 34.515625 
L 43.21875 34.515625 
L 43.21875 35.40625 
Q 43.21875 41.609375 39.140625 45 
Q 35.0625 48.390625 27.6875 48.390625 
Q 23 48.390625 18.546875 47.265625 
Q 14.109375 46.140625 10.015625 43.890625 
L 10.015625 52.203125 
Q 14.9375 54.109375 19.578125 55.046875 
Q 24.21875 56 28.609375 56 
Q 40.484375 56 46.34375 49.84375 
Q 52.203125 43.703125 52.203125 31.203125 
z
" id="DejaVuSans-97"/>
      </defs>
      <g transform="translate(77.904635 329.038437)scale(0.1 -0.1)">
       <use xlink:href="#DejaVuSans-115"/>
       <use x="52.099609" xlink:href="#DejaVuSans-101"/>
       <use x="113.623047" xlink:href="#DejaVuSans-116"/>
       <use x="152.832031" xlink:href="#DejaVuSans-111"/>
       <use x="214.013672" xlink:href="#DejaVuSans-115"/>
       <use x="266.113281" xlink:href="#DejaVuSans-97"/>
      </g>
     </g>
    </g>
    <g id="xtick_2">
     <g id="line2d_2">
      <g>
       <use style="stroke:#000000;stroke-width:0.8;" x="194.70375" xlink:href="#m212aaa7027" y="314.44"/>
      </g>
     </g>
     <g id="text_2">
      <!-- versicolor -->
      <defs>
       <path d="M 2.984375 54.6875 
L 12.5 54.6875 
L 29.59375 8.796875 
L 46.6875 54.6875 
L 56.203125 54.6875 
L 35.6875 0 
L 23.484375 0 
z
" id="DejaVuSans-118"/>
       <path d="M 41.109375 46.296875 
Q 39.59375 47.171875 37.8125 47.578125 
Q 36.03125 48 33.890625 48 
Q 26.265625 48 22.1875 43.046875 
Q 18.109375 38.09375 18.109375 28.8125 
L 18.109375 0 
L 9.078125 0 
L 9.078125 54.6875 
L 18.109375 54.6875 
L 18.109375 46.1875 
Q 20.953125 51.171875 25.484375 53.578125 
Q 30.03125 56 36.53125 56 
Q 37.453125 56 38.578125 55.875 
Q 39.703125 55.765625 41.0625 55.515625 
z
" id="DejaVuSans-114"/>
       <path d="M 9.421875 54.6875 
L 18.40625 54.6875 
L 18.40625 0 
L 9.421875 0 
z
M 9.421875 75.984375 
L 18.40625 75.984375 
L 18.40625 64.59375 
L 9.421875 64.59375 
z
" id="DejaVuSans-105"/>
       <path d="M 48.78125 52.59375 
L 48.78125 44.1875 
Q 44.96875 46.296875 41.140625 47.34375 
Q 37.3125 48.390625 33.40625 48.390625 
Q 24.65625 48.390625 19.8125 42.84375 
Q 14.984375 37.3125 14.984375 27.296875 
Q 14.984375 17.28125 19.8125 11.734375 
Q 24.65625 6.203125 33.40625 6.203125 
Q 37.3125 6.203125 41.140625 7.25 
Q 44.96875 8.296875 48.78125 10.40625 
L 48.78125 2.09375 
Q 45.015625 0.34375 40.984375 -0.53125 
Q 36.96875 -1.421875 32.421875 -1.421875 
Q 20.0625 -1.421875 12.78125 6.34375 
Q 5.515625 14.109375 5.515625 27.296875 
Q 5.515625 40.671875 12.859375 48.328125 
Q 20.21875 56 33.015625 56 
Q 37.15625 56 41.109375 55.140625 
Q 45.0625 54.296875 48.78125 52.59375 
z
" id="DejaVuSans-99"/>
       <path d="M 9.421875 75.984375 
L 18.40625 75.984375 
L 18.40625 0 
L 9.421875 0 
z
" id="DejaVuSans-108"/>
      </defs>
      <g transform="translate(170.306094 329.038437)scale(0.1 -0.1)">
       <use xlink:href="#DejaVuSans-118"/>
       <use x="59.179688" xlink:href="#DejaVuSans-101"/>
       <use x="120.703125" xlink:href="#DejaVuSans-114"/>
       <use x="161.816406" xlink:href="#DejaVuSans-115"/>
       <use x="213.916016" xlink:href="#DejaVuSans-105"/>
       <use x="241.699219" xlink:href="#DejaVuSans-99"/>
       <use x="296.679688" xlink:href="#DejaVuSans-111"/>
       <use x="357.861328" xlink:href="#DejaVuSans-108"/>
       <use x="385.644531" xlink:href="#DejaVuSans-111"/>
       <use x="446.826172" xlink:href="#DejaVuSans-114"/>
      </g>
     </g>
    </g>
    <g id="xtick_3">
     <g id="line2d_3">
      <g>
       <use style="stroke:#000000;stroke-width:0.8;" x="295.133333" xlink:href="#m212aaa7027" y="314.44"/>
      </g>
     </g>
     <g id="text_3">
      <!-- virginica -->
      <defs>
       <path d="M 45.40625 27.984375 
Q 45.40625 37.75 41.375 43.109375 
Q 37.359375 48.484375 30.078125 48.484375 
Q 22.859375 48.484375 18.828125 43.109375 
Q 14.796875 37.75 14.796875 27.984375 
Q 14.796875 18.265625 18.828125 12.890625 
Q 22.859375 7.515625 30.078125 7.515625 
Q 37.359375 7.515625 41.375 12.890625 
Q 45.40625 18.265625 45.40625 27.984375 
z
M 54.390625 6.78125 
Q 54.390625 -7.171875 48.1875 -13.984375 
Q 42 -20.796875 29.203125 -20.796875 
Q 24.46875 -20.796875 20.265625 -20.09375 
Q 16.0625 -19.390625 12.109375 -17.921875 
L 12.109375 -9.1875 
Q 16.0625 -11.328125 19.921875 -12.34375 
Q 23.78125 -13.375 27.78125 -13.375 
Q 36.625 -13.375 41.015625 -8.765625 
Q 45.40625 -4.15625 45.40625 5.171875 
L 45.40625 9.625 
Q 42.625 4.78125 38.28125 2.390625 
Q 33.9375 0 27.875 0 
Q 17.828125 0 11.671875 7.65625 
Q 5.515625 15.328125 5.515625 27.984375 
Q 5.515625 40.671875 11.671875 48.328125 
Q 17.828125 56 27.875 56 
Q 33.9375 56 38.28125 53.609375 
Q 42.625 51.21875 45.40625 46.390625 
L 45.40625 54.6875 
L 54.390625 54.6875 
z
" id="DejaVuSans-103"/>
       <path d="M 54.890625 33.015625 
L 54.890625 0 
L 45.90625 0 
L 45.90625 32.71875 
Q 45.90625 40.484375 42.875 44.328125 
Q 39.84375 48.1875 33.796875 48.1875 
Q 26.515625 48.1875 22.3125 43.546875 
Q 18.109375 38.921875 18.109375 30.90625 
L 18.109375 0 
L 9.078125 0 
L 9.078125 54.6875 
L 18.109375 54.6875 
L 18.109375 46.1875 
Q 21.34375 51.125 25.703125 53.5625 
Q 30.078125 56 35.796875 56 
Q 45.21875 56 50.046875 50.171875 
Q 54.890625 44.34375 54.890625 33.015625 
z
" id="DejaVuSans-110"/>
      </defs>
      <g transform="translate(273.795833 329.038437)scale(0.1 -0.1)">
       <use xlink:href="#DejaVuSans-118"/>
       <use x="59.179688" xlink:href="#DejaVuSans-105"/>
       <use x="86.962891" xlink:href="#DejaVuSans-114"/>
       <use x="128.060547" xlink:href="#DejaVuSans-103"/>
       <use x="191.537109" xlink:href="#DejaVuSans-105"/>
       <use x="219.320312" xlink:href="#DejaVuSans-110"/>
       <use x="282.699219" xlink:href="#DejaVuSans-105"/>
       <use x="310.482422" xlink:href="#DejaVuSans-99"/>
       <use x="365.462891" xlink:href="#DejaVuSans-97"/>
      </g>
     </g>
    </g>
    <g id="text_4">
     <!-- species -->
     <defs>
      <path d="M 18.109375 8.203125 
L 18.109375 -20.796875 
L 9.078125 -20.796875 
L 9.078125 54.6875 
L 18.109375 54.6875 
L 18.109375 46.390625 
Q 20.953125 51.265625 25.265625 53.625 
Q 29.59375 56 35.59375 56 
Q 45.5625 56 51.78125 48.09375 
Q 58.015625 40.1875 58.015625 27.296875 
Q 58.015625 14.40625 51.78125 6.484375 
Q 45.5625 -1.421875 35.59375 -1.421875 
Q 29.59375 -1.421875 25.265625 0.953125 
Q 20.953125 3.328125 18.109375 8.203125 
z
M 48.6875 27.296875 
Q 48.6875 37.203125 44.609375 42.84375 
Q 40.53125 48.484375 33.40625 48.484375 
Q 26.265625 48.484375 22.1875 42.84375 
Q 18.109375 37.203125 18.109375 27.296875 
Q 18.109375 17.390625 22.1875 11.75 
Q 26.265625 6.109375 33.40625 6.109375 
Q 40.53125 6.109375 44.609375 11.75 
Q 48.6875 17.390625 48.6875 27.296875 
z
" id="DejaVuSans-112"/>
     </defs>
     <g transform="translate(176.02875 342.716562)scale(0.1 -0.1)">
      <use xlink:href="#DejaVuSans-115"/>
      <use x="52.099609" xlink:href="#DejaVuSans-112"/>
      <use x="115.576172" xlink:href="#DejaVuSans-101"/>
      <use x="177.099609" xlink:href="#DejaVuSans-99"/>
      <use x="232.080078" xlink:href="#DejaVuSans-105"/>
      <use x="259.863281" xlink:href="#DejaVuSans-101"/>
      <use x="321.386719" xlink:href="#DejaVuSans-115"/>
     </g>
    </g>
   </g>
   <g id="matplotlib.axis_2">
    <g id="ytick_1">
     <g id="line2d_4">
      <defs>
       <path d="M 0 0 
L -3.5 0 
" id="m2c9afd2ada" style="stroke:#000000;stroke-width:0.8;"/>
      </defs>
      <g>
       <use style="stroke:#000000;stroke-width:0.8;" x="44.059375" xlink:href="#m2c9afd2ada" y="311.378143"/>
      </g>
     </g>
     <g id="text_5">
      <!-- 0.0 -->
      <defs>
       <path d="M 31.78125 66.40625 
Q 24.171875 66.40625 20.328125 58.90625 
Q 16.5 51.421875 16.5 36.375 
Q 16.5 21.390625 20.328125 13.890625 
Q 24.171875 6.390625 31.78125 6.390625 
Q 39.453125 6.390625 43.28125 13.890625 
Q 47.125 21.390625 47.125 36.375 
Q 47.125 51.421875 43.28125 58.90625 
Q 39.453125 66.40625 31.78125 66.40625 
z
M 31.78125 74.21875 
Q 44.046875 74.21875 50.515625 64.515625 
Q 56.984375 54.828125 56.984375 36.375 
Q 56.984375 17.96875 50.515625 8.265625 
Q 44.046875 -1.421875 31.78125 -1.421875 
Q 19.53125 -1.421875 13.0625 8.265625 
Q 6.59375 17.96875 6.59375 36.375 
Q 6.59375 54.828125 13.0625 64.515625 
Q 19.53125 74.21875 31.78125 74.21875 
z
" id="DejaVuSans-48"/>
       <path d="M 10.6875 12.40625 
L 21 12.40625 
L 21 0 
L 10.6875 0 
z
" id="DejaVuSans-46"/>
      </defs>
      <g transform="translate(21.15625 315.177362)scale(0.1 -0.1)">
       <use xlink:href="#DejaVuSans-48"/>
       <use x="63.623047" xlink:href="#DejaVuSans-46"/>
       <use x="95.410156" xlink:href="#DejaVuSans-48"/>
      </g>
     </g>
    </g>
    <g id="ytick_2">
     <g id="line2d_5">
      <g>
       <use style="stroke:#000000;stroke-width:0.8;" x="44.059375" xlink:href="#m2c9afd2ada" y="253.582083"/>
      </g>
     </g>
     <g id="text_6">
      <!-- 0.5 -->
      <defs>
       <path d="M 10.796875 72.90625 
L 49.515625 72.90625 
L 49.515625 64.59375 
L 19.828125 64.59375 
L 19.828125 46.734375 
Q 21.96875 47.46875 24.109375 47.828125 
Q 26.265625 48.1875 28.421875 48.1875 
Q 40.625 48.1875 47.75 41.5 
Q 54.890625 34.8125 54.890625 23.390625 
Q 54.890625 11.625 47.5625 5.09375 
Q 40.234375 -1.421875 26.90625 -1.421875 
Q 22.3125 -1.421875 17.546875 -0.640625 
Q 12.796875 0.140625 7.71875 1.703125 
L 7.71875 11.625 
Q 12.109375 9.234375 16.796875 8.0625 
Q 21.484375 6.890625 26.703125 6.890625 
Q 35.15625 6.890625 40.078125 11.328125 
Q 45.015625 15.765625 45.015625 23.390625 
Q 45.015625 31 40.078125 35.4375 
Q 35.15625 39.890625 26.703125 39.890625 
Q 22.75 39.890625 18.8125 39.015625 
Q 14.890625 38.140625 10.796875 36.28125 
z
" id="DejaVuSans-53"/>
      </defs>
      <g transform="translate(21.15625 257.381302)scale(0.1 -0.1)">
       <use xlink:href="#DejaVuSans-48"/>
       <use x="63.623047" xlink:href="#DejaVuSans-46"/>
       <use x="95.410156" xlink:href="#DejaVuSans-53"/>
      </g>
     </g>
    </g>
    <g id="ytick_3">
     <g id="line2d_6">
      <g>
       <use style="stroke:#000000;stroke-width:0.8;" x="44.059375" xlink:href="#m2c9afd2ada" y="195.786024"/>
      </g>
     </g>
     <g id="text_7">
      <!-- 1.0 -->
      <defs>
       <path d="M 12.40625 8.296875 
L 28.515625 8.296875 
L 28.515625 63.921875 
L 10.984375 60.40625 
L 10.984375 69.390625 
L 28.421875 72.90625 
L 38.28125 72.90625 
L 38.28125 8.296875 
L 54.390625 8.296875 
L 54.390625 0 
L 12.40625 0 
z
" id="DejaVuSans-49"/>
      </defs>
      <g transform="translate(21.15625 199.585242)scale(0.1 -0.1)">
       <use xlink:href="#DejaVuSans-49"/>
       <use x="63.623047" xlink:href="#DejaVuSans-46"/>
       <use x="95.410156" xlink:href="#DejaVuSans-48"/>
      </g>
     </g>
    </g>
    <g id="ytick_4">
     <g id="line2d_7">
      <g>
       <use style="stroke:#000000;stroke-width:0.8;" x="44.059375" xlink:href="#m2c9afd2ada" y="137.989964"/>
      </g>
     </g>
     <g id="text_8">
      <!-- 1.5 -->
      <g transform="translate(21.15625 141.789183)scale(0.1 -0.1)">
       <use xlink:href="#DejaVuSans-49"/>
       <use x="63.623047" xlink:href="#DejaVuSans-46"/>
       <use x="95.410156" xlink:href="#DejaVuSans-53"/>
      </g>
     </g>
    </g>
    <g id="ytick_5">
     <g id="line2d_8">
      <g>
       <use style="stroke:#000000;stroke-width:0.8;" x="44.059375" xlink:href="#m2c9afd2ada" y="80.193904"/>
      </g>
     </g>
     <g id="text_9">
      <!-- 2.0 -->
      <defs>
       <path d="M 19.1875 8.296875 
L 53.609375 8.296875 
L 53.609375 0 
L 7.328125 0 
L 7.328125 8.296875 
Q 12.9375 14.109375 22.625 23.890625 
Q 32.328125 33.6875 34.8125 36.53125 
Q 39.546875 41.84375 41.421875 45.53125 
Q 43.3125 49.21875 43.3125 52.78125 
Q 43.3125 58.59375 39.234375 62.25 
Q 35.15625 65.921875 28.609375 65.921875 
Q 23.96875 65.921875 18.8125 64.3125 
Q 13.671875 62.703125 7.8125 59.421875 
L 7.8125 69.390625 
Q 13.765625 71.78125 18.9375 73 
Q 24.125 74.21875 28.421875 74.21875 
Q 39.75 74.21875 46.484375 68.546875 
Q 53.21875 62.890625 53.21875 53.421875 
Q 53.21875 48.921875 51.53125 44.890625 
Q 49.859375 40.875 45.40625 35.40625 
Q 44.1875 33.984375 37.640625 27.21875 
Q 31.109375 20.453125 19.1875 8.296875 
z
" id="DejaVuSans-50"/>
      </defs>
      <g transform="translate(21.15625 83.993123)scale(0.1 -0.1)">
       <use xlink:href="#DejaVuSans-50"/>
       <use x="63.623047" xlink:href="#DejaVuSans-46"/>
       <use x="95.410156" xlink:href="#DejaVuSans-48"/>
      </g>
     </g>
    </g>
    <g id="ytick_6">
     <g id="line2d_9">
      <g>
       <use style="stroke:#000000;stroke-width:0.8;" x="44.059375" xlink:href="#m2c9afd2ada" y="22.397845"/>
      </g>
     </g>
     <g id="text_10">
      <!-- 2.5 -->
      <g transform="translate(21.15625 26.197063)scale(0.1 -0.1)">
       <use xlink:href="#DejaVuSans-50"/>
       <use x="63.623047" xlink:href="#DejaVuSans-46"/>
       <use x="95.410156" xlink:href="#DejaVuSans-53"/>
      </g>
     </g>
    </g>
    <g id="text_11">
     <!-- petal_width -->
     <defs>
      <path d="M 50.984375 -16.609375 
L 50.984375 -23.578125 
L -0.984375 -23.578125 
L -0.984375 -16.609375 
z
" id="DejaVuSans-95"/>
      <path d="M 4.203125 54.6875 
L 13.1875 54.6875 
L 24.421875 12.015625 
L 35.59375 54.6875 
L 46.1875 54.6875 
L 57.421875 12.015625 
L 68.609375 54.6875 
L 77.59375 54.6875 
L 63.28125 0 
L 52.6875 0 
L 40.921875 44.828125 
L 29.109375 0 
L 18.5 0 
z
" id="DejaVuSans-119"/>
      <path d="M 45.40625 46.390625 
L 45.40625 75.984375 
L 54.390625 75.984375 
L 54.390625 0 
L 45.40625 0 
L 45.40625 8.203125 
Q 42.578125 3.328125 38.25 0.953125 
Q 33.9375 -1.421875 27.875 -1.421875 
Q 17.96875 -1.421875 11.734375 6.484375 
Q 5.515625 14.40625 5.515625 27.296875 
Q 5.515625 40.1875 11.734375 48.09375 
Q 17.96875 56 27.875 56 
Q 33.9375 56 38.25 53.625 
Q 42.578125 51.265625 45.40625 46.390625 
z
M 14.796875 27.296875 
Q 14.796875 17.390625 18.875 11.75 
Q 22.953125 6.109375 30.078125 6.109375 
Q 37.203125 6.109375 41.296875 11.75 
Q 45.40625 17.390625 45.40625 27.296875 
Q 45.40625 37.203125 41.296875 42.84375 
Q 37.203125 48.484375 30.078125 48.484375 
Q 22.953125 48.484375 18.875 42.84375 
Q 14.796875 37.203125 14.796875 27.296875 
z
" id="DejaVuSans-100"/>
      <path d="M 54.890625 33.015625 
L 54.890625 0 
L 45.90625 0 
L 45.90625 32.71875 
Q 45.90625 40.484375 42.875 44.328125 
Q 39.84375 48.1875 33.796875 48.1875 
Q 26.515625 48.1875 22.3125 43.546875 
Q 18.109375 38.921875 18.109375 30.90625 
L 18.109375 0 
L 9.078125 0 
L 9.078125 75.984375 
L 18.109375 75.984375 
L 18.109375 46.1875 
Q 21.34375 51.125 25.703125 53.5625 
Q 30.078125 56 35.796875 56 
Q 45.21875 56 50.046875 50.171875 
Q 54.890625 44.34375 54.890625 33.015625 
z
" id="DejaVuSans-104"/>
     </defs>
     <g transform="translate(14.798438 189.765312)rotate(-90)scale(0.1 -0.1)">
      <use xlink:href="#DejaVuSans-112"/>
      <use x="63.476562" xlink:href="#DejaVuSans-101"/>
      <use x="125" xlink:href="#DejaVuSans-116"/>
      <use x="164.208984" xlink:href="#DejaVuSans-97"/>
      <use x="225.488281" xlink:href="#DejaVuSans-108"/>
      <use x="253.271484" xlink:href="#DejaVuSans-95"/>
      <use x="303.271484" xlink:href="#DejaVuSans-119"/>
      <use x="385.058594" xlink:href="#DejaVuSans-105"/>
      <use x="412.841797" xlink:href="#DejaVuSans-100"/>
      <use x="476.318359" xlink:href="#DejaVuSans-116"/>
      <use x="515.527344" xlink:href="#DejaVuSans-104"/>
     </g>
    </g>
   </g>
   <g id="patch_3">
    <path d="M 44.059375 314.44 
L 44.059375 7.2 
" style="fill:none;stroke:#000000;stroke-linecap:square;stroke-linejoin:miter;stroke-width:0.8;"/>
   </g>
   <g id="patch_4">
    <path d="M 44.059375 314.44 
L 345.348125 314.44 
" style="fill:none;stroke:#000000;stroke-linecap:square;stroke-linejoin:miter;stroke-width:0.8;"/>
   </g>
   <g id="PathCollection_1">
    <defs>
     <path d="M 0 2.5 
C 0.663008 2.5 1.29895 2.236584 1.767767 1.767767 
C 2.236584 1.29895 2.5 0.663008 2.5 0 
C 2.5 -0.663008 2.236584 -1.29895 1.767767 -1.767767 
C 1.29895 -2.236584 0.663008 -2.5 0 -2.5 
C -0.663008 -2.5 -1.29895 -2.236584 -1.767767 -1.767767 
C -2.236584 -1.29895 -2.5 -0.663008 -2.5 0 
C -2.5 0.663008 -2.236584 1.29895 -1.767767 1.767767 
C -1.29895 2.236584 -0.663008 2.5 0 2.5 
z
" id="C0_0_9431279272"/>
    </defs>
    <g clip-path="url(#pbddc68f1ed)">
     <use style="fill:#1f77b4;" x="94.274167" xlink:href="#C0_0_9431279272" y="299.818931"/>
    </g>
    <g clip-path="url(#pbddc68f1ed)">
     <use style="fill:#1f77b4;" x="89.132553" xlink:href="#C0_0_9431279272" y="299.818931"/>
    </g>
    <g clip-path="url(#pbddc68f1ed)">
     <use style="fill:#1f77b4;" x="99.41578" xlink:href="#C0_0_9431279272" y="299.818931"/>
    </g>
    <g clip-path="url(#pbddc68f1ed)">
     <use style="fill:#1f77b4;" x="83.99094" xlink:href="#C0_0_9431279272" y="299.818931"/>
    </g>
    <g clip-path="url(#pbddc68f1ed)">
     <use style="fill:#1f77b4;" x="104.557393" xlink:href="#C0_0_9431279272" y="299.818931"/>
    </g>
    <g clip-path="url(#pbddc68f1ed)">
     <use style="fill:#1f77b4;" x="94.274167" xlink:href="#C0_0_9431279272" y="288.259719"/>
    </g>
    <g clip-path="url(#pbddc68f1ed)">
     <use style="fill:#1f77b4;" x="89.132553" xlink:href="#C0_0_9431279272" y="288.259719"/>
    </g>
    <g clip-path="url(#pbddc68f1ed)">
     <use style="fill:#1f77b4;" x="99.41578" xlink:href="#C0_0_9431279272" y="288.259719"/>
    </g>
    <g clip-path="url(#pbddc68f1ed)">
     <use style="fill:#1f77b4;" x="83.99094" xlink:href="#C0_0_9431279272" y="288.259719"/>
    </g>
    <g clip-path="url(#pbddc68f1ed)">
     <use style="fill:#1f77b4;" x="104.557393" xlink:href="#C0_0_9431279272" y="288.259719"/>
    </g>
    <g clip-path="url(#pbddc68f1ed)">
     <use style="fill:#1f77b4;" x="109.699007" xlink:href="#C0_0_9431279272" y="288.259719"/>
    </g>
    <g clip-path="url(#pbddc68f1ed)">
     <use style="fill:#1f77b4;" x="78.849327" xlink:href="#C0_0_9431279272" y="288.259719"/>
    </g>
    <g clip-path="url(#pbddc68f1ed)">
     <use style="fill:#1f77b4;" x="114.84062" xlink:href="#C0_0_9431279272" y="288.259719"/>
    </g>
    <g clip-path="url(#pbddc68f1ed)">
     <use style="fill:#1f77b4;" x="73.707713" xlink:href="#C0_0_9431279272" y="288.259719"/>
    </g>
    <g clip-path="url(#pbddc68f1ed)">
     <use style="fill:#1f77b4;" x="119.982234" xlink:href="#C0_0_9431279272" y="288.259719"/>
    </g>
    <g clip-path="url(#pbddc68f1ed)">
     <use style="fill:#1f77b4;" x="68.5661" xlink:href="#C0_0_9431279272" y="288.259719"/>
    </g>
    <g clip-path="url(#pbddc68f1ed)">
     <use style="fill:#1f77b4;" x="125.123847" xlink:href="#C0_0_9431279272" y="288.259719"/>
    </g>
    <g clip-path="url(#pbddc68f1ed)">
     <use style="fill:#1f77b4;" x="63.424486" xlink:href="#C0_0_9431279272" y="288.259719"/>
    </g>
    <g clip-path="url(#pbddc68f1ed)">
     <use style="fill:#1f77b4;" x="130.26546" xlink:href="#C0_0_9431279272" y="288.259719"/>
    </g>
    <g clip-path="url(#pbddc68f1ed)">
     <use style="fill:#1f77b4;" x="58.282873" xlink:href="#C0_0_9431279272" y="288.259719"/>
    </g>
    <g clip-path="url(#pbddc68f1ed)">
     <use style="fill:#1f77b4;" x="134.446" xlink:href="#C0_0_9431279272" y="288.259719"/>
    </g>
    <g clip-path="url(#pbddc68f1ed)">
     <use style="fill:#1f77b4;" x="54.102333" xlink:href="#C0_0_9431279272" y="288.259719"/>
    </g>
    <g clip-path="url(#pbddc68f1ed)">
     <use style="fill:#1f77b4;" x="134.446" xlink:href="#C0_0_9431279272" y="288.259719"/>
    </g>
    <g clip-path="url(#pbddc68f1ed)">
     <use style="fill:#1f77b4;" x="54.102333" xlink:href="#C0_0_9431279272" y="288.259719"/>
    </g>
    <g clip-path="url(#pbddc68f1ed)">
     <use style="fill:#1f77b4;" x="134.446" xlink:href="#C0_0_9431279272" y="288.259719"/>
    </g>
    <g clip-path="url(#pbddc68f1ed)">
     <use style="fill:#1f77b4;" x="54.102333" xlink:href="#C0_0_9431279272" y="288.259719"/>
    </g>
    <g clip-path="url(#pbddc68f1ed)">
     <use style="fill:#1f77b4;" x="134.446" xlink:href="#C0_0_9431279272" y="288.259719"/>
    </g>
    <g clip-path="url(#pbddc68f1ed)">
     <use style="fill:#1f77b4;" x="54.102333" xlink:href="#C0_0_9431279272" y="288.259719"/>
    </g>
    <g clip-path="url(#pbddc68f1ed)">
     <use style="fill:#1f77b4;" x="134.446" xlink:href="#C0_0_9431279272" y="288.259719"/>
    </g>
    <g clip-path="url(#pbddc68f1ed)">
     <use style="fill:#1f77b4;" x="54.102333" xlink:href="#C0_0_9431279272" y="288.259719"/>
    </g>
    <g clip-path="url(#pbddc68f1ed)">
     <use style="fill:#1f77b4;" x="134.446" xlink:href="#C0_0_9431279272" y="288.259719"/>
    </g>
    <g clip-path="url(#pbddc68f1ed)">
     <use style="fill:#1f77b4;" x="54.102333" xlink:href="#C0_0_9431279272" y="288.259719"/>
    </g>
    <g clip-path="url(#pbddc68f1ed)">
     <use style="fill:#1f77b4;" x="134.446" xlink:href="#C0_0_9431279272" y="288.259719"/>
    </g>
    <g clip-path="url(#pbddc68f1ed)">
     <use style="fill:#1f77b4;" x="54.102333" xlink:href="#C0_0_9431279272" y="288.259719"/>
    </g>
    <g clip-path="url(#pbddc68f1ed)">
     <use style="fill:#1f77b4;" x="94.274167" xlink:href="#C0_0_9431279272" y="276.700507"/>
    </g>
    <g clip-path="url(#pbddc68f1ed)">
     <use style="fill:#1f77b4;" x="89.132553" xlink:href="#C0_0_9431279272" y="276.700507"/>
    </g>
    <g clip-path="url(#pbddc68f1ed)">
     <use style="fill:#1f77b4;" x="99.41578" xlink:href="#C0_0_9431279272" y="276.700507"/>
    </g>
    <g clip-path="url(#pbddc68f1ed)">
     <use style="fill:#1f77b4;" x="83.99094" xlink:href="#C0_0_9431279272" y="276.700507"/>
    </g>
    <g clip-path="url(#pbddc68f1ed)">
     <use style="fill:#1f77b4;" x="104.557393" xlink:href="#C0_0_9431279272" y="276.700507"/>
    </g>
    <g clip-path="url(#pbddc68f1ed)">
     <use style="fill:#1f77b4;" x="109.699007" xlink:href="#C0_0_9431279272" y="276.700507"/>
    </g>
    <g clip-path="url(#pbddc68f1ed)">
     <use style="fill:#1f77b4;" x="78.849327" xlink:href="#C0_0_9431279272" y="276.700507"/>
    </g>
    <g clip-path="url(#pbddc68f1ed)">
     <use style="fill:#1f77b4;" x="94.274167" xlink:href="#C0_0_9431279272" y="265.141295"/>
    </g>
    <g clip-path="url(#pbddc68f1ed)">
     <use style="fill:#1f77b4;" x="89.132553" xlink:href="#C0_0_9431279272" y="265.141295"/>
    </g>
    <g clip-path="url(#pbddc68f1ed)">
     <use style="fill:#1f77b4;" x="99.41578" xlink:href="#C0_0_9431279272" y="265.141295"/>
    </g>
    <g clip-path="url(#pbddc68f1ed)">
     <use style="fill:#1f77b4;" x="83.99094" xlink:href="#C0_0_9431279272" y="265.141295"/>
    </g>
    <g clip-path="url(#pbddc68f1ed)">
     <use style="fill:#1f77b4;" x="104.557393" xlink:href="#C0_0_9431279272" y="265.141295"/>
    </g>
    <g clip-path="url(#pbddc68f1ed)">
     <use style="fill:#1f77b4;" x="109.699007" xlink:href="#C0_0_9431279272" y="265.141295"/>
    </g>
    <g clip-path="url(#pbddc68f1ed)">
     <use style="fill:#1f77b4;" x="78.849327" xlink:href="#C0_0_9431279272" y="265.141295"/>
    </g>
    <g clip-path="url(#pbddc68f1ed)">
     <use style="fill:#1f77b4;" x="94.274167" xlink:href="#C0_0_9431279272" y="253.582083"/>
    </g>
    <g clip-path="url(#pbddc68f1ed)">
     <use style="fill:#1f77b4;" x="94.274167" xlink:href="#C0_0_9431279272" y="242.022871"/>
    </g>
   </g>
   <g id="PathCollection_2">
    <defs>
     <path d="M 0 2.5 
C 0.663008 2.5 1.29895 2.236584 1.767767 1.767767 
C 2.236584 1.29895 2.5 0.663008 2.5 0 
C 2.5 -0.663008 2.236584 -1.29895 1.767767 -1.767767 
C 1.29895 -2.236584 0.663008 -2.5 0 -2.5 
C -0.663008 -2.5 -1.29895 -2.236584 -1.767767 -1.767767 
C -2.236584 -1.29895 -2.5 -0.663008 -2.5 0 
C -2.5 0.663008 -2.236584 1.29895 -1.767767 1.767767 
C -1.29895 2.236584 -0.663008 2.5 0 2.5 
z
" id="C1_0_f3d87384e0"/>
    </defs>
    <g clip-path="url(#pbddc68f1ed)">
     <use style="fill:#ff7f0e;" x="194.70375" xlink:href="#C1_0_f3d87384e0" y="195.786024"/>
    </g>
    <g clip-path="url(#pbddc68f1ed)">
     <use style="fill:#ff7f0e;" x="189.562137" xlink:href="#C1_0_f3d87384e0" y="195.786024"/>
    </g>
    <g clip-path="url(#pbddc68f1ed)">
     <use style="fill:#ff7f0e;" x="199.845363" xlink:href="#C1_0_f3d87384e0" y="195.786024"/>
    </g>
    <g clip-path="url(#pbddc68f1ed)">
     <use style="fill:#ff7f0e;" x="184.420523" xlink:href="#C1_0_f3d87384e0" y="195.786024"/>
    </g>
    <g clip-path="url(#pbddc68f1ed)">
     <use style="fill:#ff7f0e;" x="204.986977" xlink:href="#C1_0_f3d87384e0" y="195.786024"/>
    </g>
    <g clip-path="url(#pbddc68f1ed)">
     <use style="fill:#ff7f0e;" x="179.27891" xlink:href="#C1_0_f3d87384e0" y="195.786024"/>
    </g>
    <g clip-path="url(#pbddc68f1ed)">
     <use style="fill:#ff7f0e;" x="210.12859" xlink:href="#C1_0_f3d87384e0" y="195.786024"/>
    </g>
    <g clip-path="url(#pbddc68f1ed)">
     <use style="fill:#ff7f0e;" x="194.70375" xlink:href="#C1_0_f3d87384e0" y="184.226812"/>
    </g>
    <g clip-path="url(#pbddc68f1ed)">
     <use style="fill:#ff7f0e;" x="189.562137" xlink:href="#C1_0_f3d87384e0" y="184.226812"/>
    </g>
    <g clip-path="url(#pbddc68f1ed)">
     <use style="fill:#ff7f0e;" x="199.845363" xlink:href="#C1_0_f3d87384e0" y="184.226812"/>
    </g>
    <g clip-path="url(#pbddc68f1ed)">
     <use style="fill:#ff7f0e;" x="194.70375" xlink:href="#C1_0_f3d87384e0" y="172.6676"/>
    </g>
    <g clip-path="url(#pbddc68f1ed)">
     <use style="fill:#ff7f0e;" x="189.562137" xlink:href="#C1_0_f3d87384e0" y="172.6676"/>
    </g>
    <g clip-path="url(#pbddc68f1ed)">
     <use style="fill:#ff7f0e;" x="199.845363" xlink:href="#C1_0_f3d87384e0" y="172.6676"/>
    </g>
    <g clip-path="url(#pbddc68f1ed)">
     <use style="fill:#ff7f0e;" x="184.420523" xlink:href="#C1_0_f3d87384e0" y="172.6676"/>
    </g>
    <g clip-path="url(#pbddc68f1ed)">
     <use style="fill:#ff7f0e;" x="204.986977" xlink:href="#C1_0_f3d87384e0" y="172.6676"/>
    </g>
    <g clip-path="url(#pbddc68f1ed)">
     <use style="fill:#ff7f0e;" x="194.70375" xlink:href="#C1_0_f3d87384e0" y="161.108388"/>
    </g>
    <g clip-path="url(#pbddc68f1ed)">
     <use style="fill:#ff7f0e;" x="189.562137" xlink:href="#C1_0_f3d87384e0" y="161.108388"/>
    </g>
    <g clip-path="url(#pbddc68f1ed)">
     <use style="fill:#ff7f0e;" x="199.845363" xlink:href="#C1_0_f3d87384e0" y="161.108388"/>
    </g>
    <g clip-path="url(#pbddc68f1ed)">
     <use style="fill:#ff7f0e;" x="184.420523" xlink:href="#C1_0_f3d87384e0" y="161.108388"/>
    </g>
    <g clip-path="url(#pbddc68f1ed)">
     <use style="fill:#ff7f0e;" x="204.986977" xlink:href="#C1_0_f3d87384e0" y="161.108388"/>
    </g>
    <g clip-path="url(#pbddc68f1ed)">
     <use style="fill:#ff7f0e;" x="179.27891" xlink:href="#C1_0_f3d87384e0" y="161.108388"/>
    </g>
    <g clip-path="url(#pbddc68f1ed)">
     <use style="fill:#ff7f0e;" x="210.12859" xlink:href="#C1_0_f3d87384e0" y="161.108388"/>
    </g>
    <g clip-path="url(#pbddc68f1ed)">
     <use style="fill:#ff7f0e;" x="174.137297" xlink:href="#C1_0_f3d87384e0" y="161.108388"/>
    </g>
    <g clip-path="url(#pbddc68f1ed)">
     <use style="fill:#ff7f0e;" x="215.270203" xlink:href="#C1_0_f3d87384e0" y="161.108388"/>
    </g>
    <g clip-path="url(#pbddc68f1ed)">
     <use style="fill:#ff7f0e;" x="168.995683" xlink:href="#C1_0_f3d87384e0" y="161.108388"/>
    </g>
    <g clip-path="url(#pbddc68f1ed)">
     <use style="fill:#ff7f0e;" x="220.411817" xlink:href="#C1_0_f3d87384e0" y="161.108388"/>
    </g>
    <g clip-path="url(#pbddc68f1ed)">
     <use style="fill:#ff7f0e;" x="163.85407" xlink:href="#C1_0_f3d87384e0" y="161.108388"/>
    </g>
    <g clip-path="url(#pbddc68f1ed)">
     <use style="fill:#ff7f0e;" x="225.55343" xlink:href="#C1_0_f3d87384e0" y="161.108388"/>
    </g>
    <g clip-path="url(#pbddc68f1ed)">
     <use style="fill:#ff7f0e;" x="194.70375" xlink:href="#C1_0_f3d87384e0" y="149.549176"/>
    </g>
    <g clip-path="url(#pbddc68f1ed)">
     <use style="fill:#ff7f0e;" x="189.562137" xlink:href="#C1_0_f3d87384e0" y="149.549176"/>
    </g>
    <g clip-path="url(#pbddc68f1ed)">
     <use style="fill:#ff7f0e;" x="199.845363" xlink:href="#C1_0_f3d87384e0" y="149.549176"/>
    </g>
    <g clip-path="url(#pbddc68f1ed)">
     <use style="fill:#ff7f0e;" x="184.420523" xlink:href="#C1_0_f3d87384e0" y="149.549176"/>
    </g>
    <g clip-path="url(#pbddc68f1ed)">
     <use style="fill:#ff7f0e;" x="204.986977" xlink:href="#C1_0_f3d87384e0" y="149.549176"/>
    </g>
    <g clip-path="url(#pbddc68f1ed)">
     <use style="fill:#ff7f0e;" x="179.27891" xlink:href="#C1_0_f3d87384e0" y="149.549176"/>
    </g>
    <g clip-path="url(#pbddc68f1ed)">
     <use style="fill:#ff7f0e;" x="210.12859" xlink:href="#C1_0_f3d87384e0" y="149.549176"/>
    </g>
    <g clip-path="url(#pbddc68f1ed)">
     <use style="fill:#ff7f0e;" x="194.70375" xlink:href="#C1_0_f3d87384e0" y="137.989964"/>
    </g>
    <g clip-path="url(#pbddc68f1ed)">
     <use style="fill:#ff7f0e;" x="189.562137" xlink:href="#C1_0_f3d87384e0" y="137.989964"/>
    </g>
    <g clip-path="url(#pbddc68f1ed)">
     <use style="fill:#ff7f0e;" x="199.845363" xlink:href="#C1_0_f3d87384e0" y="137.989964"/>
    </g>
    <g clip-path="url(#pbddc68f1ed)">
     <use style="fill:#ff7f0e;" x="184.420523" xlink:href="#C1_0_f3d87384e0" y="137.989964"/>
    </g>
    <g clip-path="url(#pbddc68f1ed)">
     <use style="fill:#ff7f0e;" x="204.986977" xlink:href="#C1_0_f3d87384e0" y="137.989964"/>
    </g>
    <g clip-path="url(#pbddc68f1ed)">
     <use style="fill:#ff7f0e;" x="179.27891" xlink:href="#C1_0_f3d87384e0" y="137.989964"/>
    </g>
    <g clip-path="url(#pbddc68f1ed)">
     <use style="fill:#ff7f0e;" x="210.12859" xlink:href="#C1_0_f3d87384e0" y="137.989964"/>
    </g>
    <g clip-path="url(#pbddc68f1ed)">
     <use style="fill:#ff7f0e;" x="174.137297" xlink:href="#C1_0_f3d87384e0" y="137.989964"/>
    </g>
    <g clip-path="url(#pbddc68f1ed)">
     <use style="fill:#ff7f0e;" x="215.270203" xlink:href="#C1_0_f3d87384e0" y="137.989964"/>
    </g>
    <g clip-path="url(#pbddc68f1ed)">
     <use style="fill:#ff7f0e;" x="168.995683" xlink:href="#C1_0_f3d87384e0" y="137.989964"/>
    </g>
    <g clip-path="url(#pbddc68f1ed)">
     <use style="fill:#ff7f0e;" x="194.70375" xlink:href="#C1_0_f3d87384e0" y="126.430752"/>
    </g>
    <g clip-path="url(#pbddc68f1ed)">
     <use style="fill:#ff7f0e;" x="189.562137" xlink:href="#C1_0_f3d87384e0" y="126.430752"/>
    </g>
    <g clip-path="url(#pbddc68f1ed)">
     <use style="fill:#ff7f0e;" x="199.845363" xlink:href="#C1_0_f3d87384e0" y="126.430752"/>
    </g>
    <g clip-path="url(#pbddc68f1ed)">
     <use style="fill:#ff7f0e;" x="194.70375" xlink:href="#C1_0_f3d87384e0" y="114.87154"/>
    </g>
    <g clip-path="url(#pbddc68f1ed)">
     <use style="fill:#ff7f0e;" x="194.70375" xlink:href="#C1_0_f3d87384e0" y="103.312328"/>
    </g>
   </g>
   <g id="PathCollection_3">
    <defs>
     <path d="M 0 2.5 
C 0.663008 2.5 1.29895 2.236584 1.767767 1.767767 
C 2.236584 1.29895 2.5 0.663008 2.5 0 
C 2.5 -0.663008 2.236584 -1.29895 1.767767 -1.767767 
C 1.29895 -2.236584 0.663008 -2.5 0 -2.5 
C -0.663008 -2.5 -1.29895 -2.236584 -1.767767 -1.767767 
C -2.236584 -1.29895 -2.5 -0.663008 -2.5 0 
C -2.5 0.663008 -2.236584 1.29895 -1.767767 1.767767 
C -1.29895 2.236584 -0.663008 2.5 0 2.5 
z
" id="C2_0_36399029c2"/>
    </defs>
    <g clip-path="url(#pbddc68f1ed)">
     <use style="fill:#2ca02c;" x="295.133333" xlink:href="#C2_0_36399029c2" y="149.549176"/>
    </g>
    <g clip-path="url(#pbddc68f1ed)">
     <use style="fill:#2ca02c;" x="295.133333" xlink:href="#C2_0_36399029c2" y="137.989964"/>
    </g>
    <g clip-path="url(#pbddc68f1ed)">
     <use style="fill:#2ca02c;" x="289.99172" xlink:href="#C2_0_36399029c2" y="137.989964"/>
    </g>
    <g clip-path="url(#pbddc68f1ed)">
     <use style="fill:#2ca02c;" x="295.133333" xlink:href="#C2_0_36399029c2" y="126.430752"/>
    </g>
    <g clip-path="url(#pbddc68f1ed)">
     <use style="fill:#2ca02c;" x="295.133333" xlink:href="#C2_0_36399029c2" y="114.87154"/>
    </g>
    <g clip-path="url(#pbddc68f1ed)">
     <use style="fill:#2ca02c;" x="295.133333" xlink:href="#C2_0_36399029c2" y="103.312328"/>
    </g>
    <g clip-path="url(#pbddc68f1ed)">
     <use style="fill:#2ca02c;" x="289.99172" xlink:href="#C2_0_36399029c2" y="103.312328"/>
    </g>
    <g clip-path="url(#pbddc68f1ed)">
     <use style="fill:#2ca02c;" x="300.274947" xlink:href="#C2_0_36399029c2" y="103.312328"/>
    </g>
    <g clip-path="url(#pbddc68f1ed)">
     <use style="fill:#2ca02c;" x="284.850107" xlink:href="#C2_0_36399029c2" y="103.312328"/>
    </g>
    <g clip-path="url(#pbddc68f1ed)">
     <use style="fill:#2ca02c;" x="305.41656" xlink:href="#C2_0_36399029c2" y="103.312328"/>
    </g>
    <g clip-path="url(#pbddc68f1ed)">
     <use style="fill:#2ca02c;" x="279.708493" xlink:href="#C2_0_36399029c2" y="103.312328"/>
    </g>
    <g clip-path="url(#pbddc68f1ed)">
     <use style="fill:#2ca02c;" x="310.558173" xlink:href="#C2_0_36399029c2" y="103.312328"/>
    </g>
    <g clip-path="url(#pbddc68f1ed)">
     <use style="fill:#2ca02c;" x="274.56688" xlink:href="#C2_0_36399029c2" y="103.312328"/>
    </g>
    <g clip-path="url(#pbddc68f1ed)">
     <use style="fill:#2ca02c;" x="315.699787" xlink:href="#C2_0_36399029c2" y="103.312328"/>
    </g>
    <g clip-path="url(#pbddc68f1ed)">
     <use style="fill:#2ca02c;" x="269.425266" xlink:href="#C2_0_36399029c2" y="103.312328"/>
    </g>
    <g clip-path="url(#pbddc68f1ed)">
     <use style="fill:#2ca02c;" x="320.8414" xlink:href="#C2_0_36399029c2" y="103.312328"/>
    </g>
    <g clip-path="url(#pbddc68f1ed)">
     <use style="fill:#2ca02c;" x="295.133333" xlink:href="#C2_0_36399029c2" y="91.753116"/>
    </g>
    <g clip-path="url(#pbddc68f1ed)">
     <use style="fill:#2ca02c;" x="289.99172" xlink:href="#C2_0_36399029c2" y="91.753116"/>
    </g>
    <g clip-path="url(#pbddc68f1ed)">
     <use style="fill:#2ca02c;" x="300.274947" xlink:href="#C2_0_36399029c2" y="91.753116"/>
    </g>
    <g clip-path="url(#pbddc68f1ed)">
     <use style="fill:#2ca02c;" x="284.850107" xlink:href="#C2_0_36399029c2" y="91.753116"/>
    </g>
    <g clip-path="url(#pbddc68f1ed)">
     <use style="fill:#2ca02c;" x="305.41656" xlink:href="#C2_0_36399029c2" y="91.753116"/>
    </g>
    <g clip-path="url(#pbddc68f1ed)">
     <use style="fill:#2ca02c;" x="295.133333" xlink:href="#C2_0_36399029c2" y="80.193904"/>
    </g>
    <g clip-path="url(#pbddc68f1ed)">
     <use style="fill:#2ca02c;" x="289.99172" xlink:href="#C2_0_36399029c2" y="80.193904"/>
    </g>
    <g clip-path="url(#pbddc68f1ed)">
     <use style="fill:#2ca02c;" x="300.274947" xlink:href="#C2_0_36399029c2" y="80.193904"/>
    </g>
    <g clip-path="url(#pbddc68f1ed)">
     <use style="fill:#2ca02c;" x="284.850107" xlink:href="#C2_0_36399029c2" y="80.193904"/>
    </g>
    <g clip-path="url(#pbddc68f1ed)">
     <use style="fill:#2ca02c;" x="305.41656" xlink:href="#C2_0_36399029c2" y="80.193904"/>
    </g>
    <g clip-path="url(#pbddc68f1ed)">
     <use style="fill:#2ca02c;" x="279.708493" xlink:href="#C2_0_36399029c2" y="80.193904"/>
    </g>
    <g clip-path="url(#pbddc68f1ed)">
     <use style="fill:#2ca02c;" x="295.133333" xlink:href="#C2_0_36399029c2" y="68.634692"/>
    </g>
    <g clip-path="url(#pbddc68f1ed)">
     <use style="fill:#2ca02c;" x="289.99172" xlink:href="#C2_0_36399029c2" y="68.634692"/>
    </g>
    <g clip-path="url(#pbddc68f1ed)">
     <use style="fill:#2ca02c;" x="300.274947" xlink:href="#C2_0_36399029c2" y="68.634692"/>
    </g>
    <g clip-path="url(#pbddc68f1ed)">
     <use style="fill:#2ca02c;" x="284.850107" xlink:href="#C2_0_36399029c2" y="68.634692"/>
    </g>
    <g clip-path="url(#pbddc68f1ed)">
     <use style="fill:#2ca02c;" x="305.41656" xlink:href="#C2_0_36399029c2" y="68.634692"/>
    </g>
    <g clip-path="url(#pbddc68f1ed)">
     <use style="fill:#2ca02c;" x="279.708493" xlink:href="#C2_0_36399029c2" y="68.634692"/>
    </g>
    <g clip-path="url(#pbddc68f1ed)">
     <use style="fill:#2ca02c;" x="295.133333" xlink:href="#C2_0_36399029c2" y="57.075481"/>
    </g>
    <g clip-path="url(#pbddc68f1ed)">
     <use style="fill:#2ca02c;" x="289.99172" xlink:href="#C2_0_36399029c2" y="57.075481"/>
    </g>
    <g clip-path="url(#pbddc68f1ed)">
     <use style="fill:#2ca02c;" x="300.274947" xlink:href="#C2_0_36399029c2" y="57.075481"/>
    </g>
    <g clip-path="url(#pbddc68f1ed)">
     <use style="fill:#2ca02c;" x="295.133333" xlink:href="#C2_0_36399029c2" y="45.516269"/>
    </g>
    <g clip-path="url(#pbddc68f1ed)">
     <use style="fill:#2ca02c;" x="289.99172" xlink:href="#C2_0_36399029c2" y="45.516269"/>
    </g>
    <g clip-path="url(#pbddc68f1ed)">
     <use style="fill:#2ca02c;" x="300.274947" xlink:href="#C2_0_36399029c2" y="45.516269"/>
    </g>
    <g clip-path="url(#pbddc68f1ed)">
     <use style="fill:#2ca02c;" x="284.850107" xlink:href="#C2_0_36399029c2" y="45.516269"/>
    </g>
    <g clip-path="url(#pbddc68f1ed)">
     <use style="fill:#2ca02c;" x="305.41656" xlink:href="#C2_0_36399029c2" y="45.516269"/>
    </g>
    <g clip-path="url(#pbddc68f1ed)">
     <use style="fill:#2ca02c;" x="279.708493" xlink:href="#C2_0_36399029c2" y="45.516269"/>
    </g>
    <g clip-path="url(#pbddc68f1ed)">
     <use style="fill:#2ca02c;" x="310.558173" xlink:href="#C2_0_36399029c2" y="45.516269"/>
    </g>
    <g clip-path="url(#pbddc68f1ed)">
     <use style="fill:#2ca02c;" x="274.56688" xlink:href="#C2_0_36399029c2" y="45.516269"/>
    </g>
    <g clip-path="url(#pbddc68f1ed)">
     <use style="fill:#2ca02c;" x="295.133333" xlink:href="#C2_0_36399029c2" y="33.957057"/>
    </g>
    <g clip-path="url(#pbddc68f1ed)">
     <use style="fill:#2ca02c;" x="289.99172" xlink:href="#C2_0_36399029c2" y="33.957057"/>
    </g>
    <g clip-path="url(#pbddc68f1ed)">
     <use style="fill:#2ca02c;" x="300.274947" xlink:href="#C2_0_36399029c2" y="33.957057"/>
    </g>
    <g clip-path="url(#pbddc68f1ed)">
     <use style="fill:#2ca02c;" x="295.133333" xlink:href="#C2_0_36399029c2" y="22.397845"/>
    </g>
    <g clip-path="url(#pbddc68f1ed)">
     <use style="fill:#2ca02c;" x="289.99172" xlink:href="#C2_0_36399029c2" y="22.397845"/>
    </g>
    <g clip-path="url(#pbddc68f1ed)">
     <use style="fill:#2ca02c;" x="300.274947" xlink:href="#C2_0_36399029c2" y="22.397845"/>
    </g>
   </g>
  </g>
 </g>
 <defs>
  <clipPath id="pbddc68f1ed">
   <rect height="307.24" width="301.28875" x="44.059375" y="7.2"/>
  </clipPath>
 </defs>
</svg>
